<svg xmlns="http://www.w3.org/2000/svg" id="canvas" viewBox="370.072 211.677 505.368 227.347">
    <path
        d="M 438.67,237.18 C 437.46 237.18, 435.94 237.35, 433.64 238.89 C 431.34 240.42, 429.88 241.77, 427.16 244.85 C 424.44 247.94, 423.19 249.99, 420.06 254.32 C 416.93 258.65, 414.98 261.05, 411.50 266.52 C 408.01 271.98, 406.39 274.92, 402.65 281.64 C 398.91 288.35, 396.62 292.02, 392.79 300.10 C 388.96 308.17, 386.69 313.06, 383.51 322.00 C 380.33 330.93, 378.85 335.95, 376.89 344.78 C 374.94 353.62, 374.47 358.31, 373.74 366.16 C 373.01 374.01, 372.93 377.67, 373.25 384.04 C 373.56 390.41, 373.98 393.20, 375.30 398.00 C 376.63 402.79, 377.75 404.47, 379.86 408.01 C 381.96 411.55, 383.13 412.87, 385.83 415.68 C 388.53 418.50, 389.91 419.79, 393.36 422.10 C 396.81 424.40, 398.94 425.43, 403.06 427.21 C 407.18 428.99, 409.47 429.61, 413.96 431.00 C 418.46 432.40, 420.86 433.22, 425.54 434.18 C 430.21 435.15, 432.68 435.49, 437.35 435.82 C 442.01 436.15, 444.62 436.02, 448.87 435.84 C 453.12 435.66, 455.12 435.29, 458.59 434.92 C 462.05 434.55, 463.59 434.48, 466.21 433.99 C 468.83 433.50, 470.07 433.52, 471.68 432.48 C 473.29 431.45, 473.68 430.43, 474.27 428.83 C 474.87 427.24, 475.02 426.10, 474.64 424.51 C 474.27 422.92, 473.38 421.42, 472.41 420.87 C 471.44 420.33, 470.26 420.85, 469.81 421.78 C 469.35 422.71, 469.89 424.24, 470.14 425.50 C 470.40 426.76, 471.06 427.25, 471.07 428.07 C 471.09 428.88, 471.33 429.25, 470.22 429.59 C 469.11 429.93, 467.97 429.46, 465.54 429.77 C 463.11 430.08, 461.45 430.60, 458.08 431.15 C 454.71 431.70, 452.78 432.22, 448.67 432.53 C 444.57 432.85, 442.05 433.00, 437.55 432.74 C 433.04 432.47, 430.68 432.16, 426.15 431.21 C 421.62 430.27, 419.26 429.42, 414.91 428.02 C 410.55 426.62, 408.31 425.96, 404.37 424.22 C 400.43 422.48, 398.47 421.47, 395.21 419.31 C 391.96 417.16, 390.69 416.01, 388.10 413.45 C 385.51 410.89, 384.36 409.74, 382.25 406.52 C 380.14 403.30, 378.97 401.85, 377.57 397.33 C 376.16 392.82, 375.64 390.13, 375.22 383.92 C 374.79 377.72, 374.80 374.07, 375.45 366.31 C 376.10 358.55, 376.54 353.88, 378.46 345.13 C 380.38 336.37, 381.86 331.40, 385.03 322.54 C 388.21 313.68, 390.48 308.83, 394.34 300.84 C 398.20 292.85, 400.52 289.21, 404.35 282.60 C 408.17 276.00, 409.84 273.11, 413.46 267.82 C 417.08 262.52, 419.15 260.21, 422.45 256.15 C 425.75 252.08, 427.19 250.24, 429.97 247.49 C 432.74 244.73, 434.36 244.10, 436.32 242.38 C 438.27 240.66, 439.25 239.92, 439.72 238.88 C 440.19 237.84, 439.89 237.18, 438.67 237.18"
        style="stroke: white; fill: white;" />
    <path
        d="M 411.88,280.93 C 413.75 280.45, 416.07 279.34, 420.24 276.73 C 424.41 274.13, 427.53 271.84, 432.74 267.91 C 437.95 263.97, 441.49 261.35, 446.29 257.04 C 451.09 252.73, 453.40 250.01, 456.74 246.35 C 460.08 242.68, 461.36 241.25, 463.00 238.71 C 464.65 236.17, 464.80 234.80, 464.97 233.66 C 465.14 232.52, 464.72 232.35, 463.85 233.02 C 462.98 233.68, 462.46 234.70, 460.62 236.99 C 458.79 239.29, 457.89 240.87, 454.67 244.49 C 451.46 248.11, 449.25 250.84, 444.55 255.11 C 439.84 259.37, 436.31 261.94, 431.16 265.81 C 426.01 269.68, 422.83 271.78, 418.78 274.45 C 414.72 277.12, 412.28 277.86, 410.91 279.15 C 409.53 280.45, 410.02 281.42, 411.88 280.93"
        style="stroke: white; fill: white;" />
    <path
        d="M 405.29,318.34 C 405.79 319.48, 406.68 320.97, 408.98 322.36 C 411.28 323.76, 412.90 324.38, 416.81 325.31 C 420.72 326.25, 423.34 326.76, 428.53 327.05 C 433.73 327.34, 436.80 327.11, 442.80 326.76 C 448.80 326.42, 452.59 325.96, 458.52 325.35 C 464.44 324.73, 467.70 324.26, 472.41 323.68 C 477.11 323.10, 480.14 323.05, 482.03 322.43 C 483.92 321.82, 483.85 320.88, 481.87 320.62 C 479.89 320.35, 476.86 320.69, 472.13 321.11 C 467.41 321.53, 464.14 322.12, 458.25 322.71 C 452.35 323.29, 448.56 323.80, 442.67 324.04 C 436.77 324.27, 433.75 324.39, 428.78 323.88 C 423.82 323.37, 421.40 322.56, 417.83 321.49 C 414.27 320.42, 413.22 319.51, 410.95 318.54 C 408.69 317.58, 407.64 316.71, 406.51 316.67 C 405.38 316.62, 404.80 317.20, 405.29 318.34"
        style="stroke: white; fill: white;" />
    <path
        d="M 532.39,319.68 C 531.57 319.61, 530.85 319.50, 529.34 320.73 C 527.82 321.97, 526.60 322.54, 524.80 325.86 C 523.01 329.18, 522.27 331.58, 520.35 337.34 C 518.44 343.10, 517.24 347.02, 515.23 354.65 C 513.23 362.29, 512.03 367.27, 510.32 375.51 C 508.61 383.76, 507.66 388.26, 506.70 395.89 C 505.74 403.51, 505.12 407.53, 505.50 413.63 C 505.88 419.73, 506.59 422.58, 508.60 426.38 C 510.60 430.19, 512.26 431.52, 515.53 432.65 C 518.79 433.79, 521.03 433.67, 524.93 432.06 C 528.82 430.45, 530.96 428.84, 534.99 424.60 C 539.03 420.36, 541.12 417.64, 545.10 410.85 C 549.08 404.06, 551.02 399.73, 554.90 390.66 C 558.78 381.59, 560.86 376.25, 564.49 365.50 C 568.12 354.75, 569.94 348.50, 573.04 336.91 C 576.13 325.31, 577.48 318.85, 579.97 307.51 C 582.46 296.18, 583.53 290.38, 585.47 280.22 C 587.42 270.06, 588.16 264.86, 589.69 256.72 C 591.21 248.58, 592.07 244.94, 593.09 239.53 C 594.11 234.12, 594.74 231.92, 594.79 229.67 C 594.85 227.43, 593.86 227.15, 593.36 228.33 C 592.85 229.51, 592.56 231.14, 592.27 235.57 C 591.98 240.01, 592.02 243.27, 591.90 250.52 C 591.78 257.78, 591.98 262.41, 591.67 271.83 C 591.37 281.25, 590.77 286.97, 590.38 297.63 C 589.98 308.28, 589.83 314.20, 589.70 325.11 C 589.56 336.02, 589.57 341.82, 589.72 352.17 C 589.86 362.53, 589.98 367.94, 590.41 376.89 C 590.83 385.84, 590.95 390.18, 591.84 396.92 C 592.73 403.67, 593.31 406.23, 594.87 410.62 C 596.44 415.00, 597.33 416.78, 599.66 418.85 C 602.00 420.93, 603.67 421.48, 606.55 420.99 C 609.42 420.50, 611.23 419.63, 614.04 416.40 C 616.85 413.17, 618.11 410.60, 620.60 404.84 C 623.08 399.07, 624.25 395.04, 626.47 387.59 C 628.70 380.15, 629.91 375.43, 631.73 367.60 C 633.55 359.76, 634.30 355.15, 635.57 348.43 C 636.84 341.70, 637.57 338.31, 638.09 333.97 C 638.60 329.63, 638.54 328.03, 638.13 326.72 C 637.73 325.40, 636.59 325.67, 636.06 327.41 C 635.54 329.15, 635.54 330.79, 635.52 335.42 C 635.49 340.05, 635.67 343.52, 635.94 350.57 C 636.21 357.63, 636.39 362.40, 636.89 370.69 C 637.38 378.98, 638.04 384.15, 638.43 392.01 C 638.81 399.87, 638.62 404.01, 638.80 409.99 C 638.99 415.97, 638.78 419.07, 639.34 421.92 C 639.89 424.77, 640.81 424.72, 641.59 424.25 C 642.37 423.77, 643.02 421.80, 643.22 419.55 C 643.43 417.30, 643.44 414.29, 642.61 413.01 C 641.77 411.73, 639.78 411.79, 639.04 413.14 C 638.30 414.48, 638.53 417.52, 638.91 419.73 C 639.30 421.93, 640.31 423.79, 640.98 424.18 C 641.66 424.56, 642.25 424.51, 642.28 421.65 C 642.32 418.79, 641.51 415.83, 641.14 409.88 C 640.77 403.93, 640.85 399.76, 640.42 391.90 C 639.99 384.04, 639.34 378.86, 638.97 370.58 C 638.61 362.31, 638.60 357.55, 638.58 350.52 C 638.56 343.49, 638.92 340.03, 638.89 335.42 C 638.86 330.80, 638.90 329.21, 638.43 327.45 C 637.96 325.68, 637.18 325.35, 636.57 326.59 C 635.95 327.82, 635.98 329.32, 635.35 333.61 C 634.73 337.90, 634.56 341.34, 633.44 348.05 C 632.33 354.76, 631.58 359.36, 629.77 367.14 C 627.96 374.92, 626.70 379.63, 624.38 386.95 C 622.06 394.27, 620.73 398.28, 618.18 403.75 C 615.62 409.22, 614.05 411.45, 611.60 414.29 C 609.15 417.12, 607.93 417.48, 605.95 417.94 C 603.97 418.40, 603.47 418.23, 601.69 416.60 C 599.92 414.97, 598.68 413.77, 597.08 409.78 C 595.47 405.79, 594.68 403.26, 593.65 396.66 C 592.62 390.07, 592.44 385.71, 591.93 376.81 C 591.42 367.91, 591.27 362.49, 591.10 352.15 C 590.92 341.81, 590.91 336.02, 591.06 325.13 C 591.21 314.23, 591.38 308.33, 591.86 297.69 C 592.34 287.04, 592.96 281.32, 593.45 271.91 C 593.95 262.49, 593.95 257.85, 594.34 250.61 C 594.74 243.37, 595.31 240.18, 595.41 235.71 C 595.52 231.25, 595.43 229.58, 594.85 228.28 C 594.27 226.99, 593.30 227.07, 592.52 229.25 C 591.75 231.42, 591.86 233.72, 590.98 239.16 C 590.10 244.60, 589.50 248.28, 588.13 256.44 C 586.77 264.61, 586.04 269.81, 584.16 279.97 C 582.29 290.13, 581.22 295.93, 578.75 307.25 C 576.29 318.57, 574.93 325.02, 571.82 336.58 C 568.71 348.14, 566.87 354.37, 563.19 365.05 C 559.51 375.74, 557.39 381.07, 553.43 390.02 C 549.47 398.98, 547.44 403.26, 543.38 409.82 C 539.33 416.38, 537.09 418.92, 533.17 422.82 C 529.25 426.72, 527.13 427.91, 523.78 429.32 C 520.44 430.73, 519.04 430.70, 516.46 429.87 C 513.87 429.05, 512.62 428.46, 510.86 425.18 C 509.09 421.90, 508.09 419.29, 507.64 413.48 C 507.19 407.67, 507.69 403.64, 508.60 396.12 C 509.51 388.61, 510.45 384.09, 512.21 375.91 C 513.96 367.73, 515.20 362.75, 517.36 355.24 C 519.53 347.72, 520.83 343.79, 523.03 338.32 C 525.24 332.86, 526.59 330.90, 528.39 327.90 C 530.19 324.91, 531.02 324.71, 532.02 323.34 C 533.03 321.97, 533.35 321.80, 533.42 321.07 C 533.50 320.33, 533.21 319.75, 532.39 319.68"
        style="stroke: white; fill: white;" />
    <path
        d="M 643.74,253.55 C 644.17 252.66, 643.58 251.17, 642.95 250.85 C 642.31 250.53, 641.25 251.39, 640.55 251.95 C 639.85 252.52, 639.49 253.03, 639.45 253.68 C 639.40 254.32, 639.42 255.53, 640.33 255.18 C 641.24 254.83, 643.54 252.81, 643.98 251.94 C 644.43 251.06, 643.20 250.84, 642.54 250.82 C 641.89 250.80, 641.43 251.32, 640.70 251.85 C 639.97 252.37, 638.89 252.76, 638.91 253.45 C 638.92 254.14, 639.80 255.27, 640.77 255.29 C 641.73 255.31, 643.30 254.44, 643.74 253.55"
        style="stroke: white; fill: white;" />
    <path
        d="M 682.74,215.76 C 682.10 217.31, 681.95 219.03, 681.40 223.77 C 680.86 228.51, 680.72 231.35, 680.03 239.47 C 679.34 247.58, 678.90 253.18, 677.96 264.33 C 677.01 275.49, 676.17 282.36, 675.31 295.26 C 674.45 308.17, 674.03 315.71, 673.67 328.87 C 673.31 342.02, 673.60 349.50, 673.51 361.06 C 673.42 372.61, 673.25 377.95, 673.20 386.63 C 673.15 395.32, 673.15 398.67, 673.25 404.49 C 673.34 410.31, 673.08 413.03, 673.66 415.72 C 674.25 418.41, 675.38 418.28, 676.16 417.94 C 676.94 417.61, 677.35 415.88, 677.57 414.06 C 677.79 412.25, 677.99 409.91, 677.25 408.88 C 676.51 407.85, 674.58 407.85, 673.86 408.92 C 673.14 409.99, 673.28 412.47, 673.66 414.23 C 674.03 416.00, 675.19 417.54, 675.73 417.76 C 676.28 417.99, 676.49 418.04, 676.38 415.37 C 676.27 412.70, 675.53 410.16, 675.18 404.42 C 674.83 398.67, 674.72 395.30, 674.63 386.63 C 674.55 377.96, 674.70 372.61, 674.74 361.06 C 674.78 349.52, 674.48 342.04, 674.84 328.90 C 675.20 315.75, 675.64 308.23, 676.56 295.35 C 677.49 282.46, 678.39 275.61, 679.47 264.47 C 680.55 253.33, 681.11 247.74, 681.98 239.65 C 682.85 231.57, 683.29 228.77, 683.81 224.04 C 684.34 219.31, 684.82 217.66, 684.60 216.01 C 684.39 214.35, 683.38 214.21, 682.74 215.76"
        style="stroke: white; fill: white;" />
    <path
        d="M 649.10,334.95 C 649.67 335.54, 650.43 335.66, 651.92 335.91 C 653.42 336.17, 654.04 336.33, 656.56 336.23 C 659.08 336.13, 660.87 336.12, 664.53 335.42 C 668.19 334.71, 670.51 333.92, 674.87 332.71 C 679.22 331.50, 681.65 330.80, 686.31 329.38 C 690.98 327.96, 693.58 327.03, 698.21 325.61 C 702.83 324.18, 705.20 323.63, 709.42 322.26 C 713.63 320.88, 715.76 320.05, 719.28 318.73 C 722.81 317.42, 724.35 316.76, 727.04 315.68 C 729.73 314.61, 730.87 313.46, 732.73 313.34 C 734.59 313.22, 735.11 313.16, 736.33 315.08 C 737.55 316.99, 738.32 318.34, 738.84 322.92 C 739.36 327.49, 739.27 331.04, 738.95 337.96 C 738.63 344.87, 738.14 349.53, 737.24 357.49 C 736.33 365.45, 735.47 370.03, 734.40 377.76 C 733.33 385.49, 732.67 389.46, 731.89 396.15 C 731.11 402.84, 730.99 406.13, 730.49 411.20 C 729.99 416.26, 729.39 418.56, 729.37 421.48 C 729.35 424.40, 729.76 425.45, 730.39 425.80 C 731.01 426.15, 731.98 425.85, 732.50 423.22 C 733.01 420.60, 732.62 418.34, 732.95 412.69 C 733.29 407.04, 733.45 402.82, 734.16 394.97 C 734.88 387.11, 735.35 382.04, 736.53 373.40 C 737.71 364.77, 738.33 359.79, 740.06 351.80 C 741.80 343.81, 742.99 339.82, 745.19 333.46 C 747.39 327.11, 748.66 324.53, 751.07 320.05 C 753.49 315.56, 754.70 313.96, 757.26 311.03 C 759.83 308.10, 761.21 307.23, 763.91 305.41 C 766.61 303.58, 767.87 302.97, 770.78 301.91 C 773.68 300.85, 775.06 300.72, 778.42 300.10 C 781.79 299.48, 785.80 299.61, 787.60 298.82 C 789.40 298.03, 789.36 296.66, 787.41 296.13 C 785.45 295.61, 781.42 295.73, 777.82 296.19 C 774.22 296.65, 772.59 297.13, 769.42 298.42 C 766.25 299.72, 764.81 300.52, 761.95 302.69 C 759.10 304.85, 757.72 306.00, 755.14 309.26 C 752.56 312.53, 751.42 314.29, 749.06 319.01 C 746.70 323.72, 745.50 326.36, 743.35 332.84 C 741.20 339.32, 740.03 343.36, 738.30 351.42 C 736.56 359.48, 735.94 364.48, 734.66 373.14 C 733.37 381.80, 732.81 386.86, 731.87 394.72 C 730.92 402.59, 730.53 406.79, 729.94 412.44 C 729.35 418.10, 728.74 420.30, 728.91 423.00 C 729.09 425.69, 730.05 426.15, 730.81 425.90 C 731.58 425.65, 732.31 424.65, 732.75 421.75 C 733.19 418.84, 732.76 416.46, 733.00 411.38 C 733.23 406.31, 733.26 403.04, 733.93 396.37 C 734.60 389.70, 735.25 385.75, 736.32 378.03 C 737.40 370.30, 738.28 365.73, 739.30 357.74 C 740.32 349.76, 740.89 345.13, 741.40 338.10 C 741.92 331.08, 742.28 327.64, 741.88 322.62 C 741.47 317.60, 741.20 315.57, 739.39 313.01 C 737.57 310.44, 735.56 310.02, 732.80 309.80 C 730.04 309.59, 728.53 310.80, 725.57 311.94 C 722.61 313.08, 721.42 314.04, 717.99 315.51 C 714.56 316.97, 712.54 317.83, 708.41 319.27 C 704.27 320.71, 701.91 321.29, 697.31 322.70 C 692.72 324.12, 690.09 325.03, 685.43 326.32 C 680.76 327.61, 678.31 328.25, 674.00 329.15 C 669.69 330.06, 667.43 330.52, 663.87 330.86 C 660.32 331.20, 658.66 330.64, 656.23 330.85 C 653.80 331.05, 653.14 331.46, 651.70 331.88 C 650.27 332.30, 649.58 332.32, 649.06 332.94 C 648.54 333.55, 648.52 334.35, 649.10 334.95"
        style="stroke: white; fill: white;" />
    <path
        d="M 840.42,286.01 C 839.52 285.48, 838.31 284.81, 836.07 285.27 C 833.83 285.74, 832.08 286.21, 829.20 288.34 C 826.32 290.46, 824.66 292.14, 821.68 295.90 C 818.70 299.66, 817.20 301.88, 814.31 307.14 C 811.42 312.41, 809.86 315.52, 807.24 322.22 C 804.62 328.91, 803.12 333.02, 801.22 340.61 C 799.32 348.21, 798.60 352.57, 797.74 360.21 C 796.87 367.85, 796.44 371.98, 796.88 378.81 C 797.32 385.65, 798.13 388.97, 799.92 394.37 C 801.71 399.77, 802.83 402.26, 805.85 405.82 C 808.87 409.37, 811.10 410.81, 815.03 412.14 C 818.97 413.46, 821.35 413.29, 825.53 412.45 C 829.71 411.61, 831.93 410.72, 835.92 407.94 C 839.91 405.17, 841.83 403.28, 845.46 398.55 C 849.09 393.83, 850.79 390.93, 854.06 384.32 C 857.34 377.70, 859.04 373.70, 861.85 365.48 C 864.66 357.27, 866.17 352.31, 868.10 343.25 C 870.04 334.19, 870.67 328.73, 871.51 320.18 C 872.35 311.64, 872.64 307.35, 872.30 300.51 C 871.97 293.67, 871.22 290.83, 869.85 285.99 C 868.48 281.14, 867.48 279.05, 865.46 276.28 C 863.44 273.51, 862.13 273.09, 859.74 272.14 C 857.35 271.20, 854.82 271.29, 853.50 271.56 C 852.18 271.82, 852.14 272.77, 853.14 273.48 C 854.14 274.18, 856.51 274.14, 858.49 275.07 C 860.46 276.00, 861.19 275.81, 863.01 278.13 C 864.84 280.45, 866.13 282.17, 867.61 286.67 C 869.08 291.17, 869.96 293.95, 870.40 300.62 C 870.84 307.29, 870.59 311.57, 869.80 320.02 C 869.01 328.48, 868.39 333.92, 866.46 342.89 C 864.53 351.87, 862.99 356.79, 860.15 364.89 C 857.30 372.99, 855.54 376.95, 852.22 383.38 C 848.89 389.81, 847.11 392.59, 843.53 397.03 C 839.94 401.47, 838.03 403.10, 834.31 405.58 C 830.59 408.06, 828.59 408.69, 824.92 409.44 C 821.25 410.20, 819.36 410.42, 815.94 409.35 C 812.52 408.29, 810.59 407.26, 807.81 404.12 C 805.03 400.98, 803.83 398.73, 802.05 393.64 C 800.27 388.56, 799.38 385.32, 798.90 378.68 C 798.42 372.03, 798.80 367.94, 799.65 360.43 C 800.50 352.91, 801.22 348.58, 803.14 341.10 C 805.07 333.62, 806.59 329.56, 809.27 323.03 C 811.96 316.50, 813.58 313.43, 816.58 308.45 C 819.58 303.47, 821.22 301.40, 824.28 298.13 C 827.33 294.85, 829.23 293.84, 831.85 292.07 C 834.46 290.30, 835.62 290.10, 837.37 289.27 C 839.11 288.45, 839.96 288.60, 840.57 287.94 C 841.18 287.29, 841.31 286.54, 840.42 286.01"
        style="stroke: white; fill: white;" />
</svg>